<svg id="svg" version="1.1" xmlns="http://www.w3.org/2000/svg" xmlns:xlink="http://www.w3.org/1999/xlink" width="400" height="300" viewBox="0, 0, 400,300"><g id="svgg"><path id="path0" d="M165.920 109.309 C 165.205 110.023,165.195 110.633,165.248 150.329 C 165.304 192.848,165.251 190.800,166.300 190.800 C 167.352 190.800,167.300 192.908,167.300 149.900 C 167.300 112.345,167.282 110.266,166.945 109.650 C 166.547 108.921,166.367 108.862,165.920 109.309 M210.185 111.277 C 209.964 112.156,209.922 112.193,208.719 112.594 C 196.348 116.711,198.567 136.301,211.272 135.121 C 218.300 134.467,222.970 129.695,223.331 122.800 C 223.708 115.596,219.786 111.504,211.556 110.511 L 210.413 110.373 210.185 111.277 M179.923 112.412 C 178.945 112.729,178.123 113.013,178.095 113.044 C 178.022 113.127,175.670 123.977,174.879 127.886 C 174.502 129.748,174.013 131.857,173.792 132.573 C 173.466 133.627,173.438 133.922,173.645 134.122 C 173.968 134.433,176.239 135.180,177.327 135.332 L 178.153 135.448 178.977 131.974 C 179.430 130.063,180.057 127.420,180.372 126.100 L 180.943 123.700 181.183 124.600 C 184.092 135.513,183.809 135.385,188.006 127.689 C 189.680 124.618,190.944 122.509,191.022 122.653 C 191.097 122.789,191.391 124.970,191.677 127.500 C 192.681 136.396,192.337 135.837,196.095 134.664 C 198.439 133.933,198.329 134.219,197.826 130.165 C 196.835 122.164,195.349 112.288,195.097 112.024 C 194.873 111.789,194.443 111.853,192.269 112.443 L 189.705 113.139 187.703 117.359 C 186.601 119.680,185.640 121.636,185.566 121.706 C 185.493 121.776,185.104 120.769,184.702 119.467 C 182.844 113.446,182.294 111.899,182.000 111.868 C 181.835 111.851,180.900 112.095,179.923 112.412 M231.492 111.984 C 230.019 112.221,229.404 112.609,226.983 114.833 C 224.096 117.486,224.065 117.893,226.798 117.308 C 227.512 117.155,228.136 117.069,228.184 117.118 C 228.233 117.166,228.036 120.255,227.748 123.983 L 227.224 130.760 226.205 132.789 C 224.901 135.389,224.788 135.281,228.679 135.142 C 239.724 134.747,245.989 130.385,246.695 122.600 C 247.352 115.358,240.456 110.542,231.492 111.984 M263.100 112.026 C 262.110 112.123,259.104 112.269,256.420 112.351 L 251.540 112.500 250.270 114.555 C 248.623 117.220,248.646 117.390,250.650 117.397 C 251.516 117.400,251.471 117.164,251.208 120.337 L 251.023 122.574 250.012 123.965 C 248.717 125.745,248.759 125.988,250.364 125.997 C 250.805 126.000,250.823 126.054,250.720 127.050 C 250.660 127.628,250.557 128.820,250.490 129.700 C 250.384 131.099,250.268 131.469,249.562 132.648 C 248.316 134.732,247.859 134.573,256.426 135.027 C 262.016 135.323,261.669 135.429,263.188 132.962 C 264.726 130.462,264.896 130.600,260.299 130.600 L 256.397 130.600 256.527 129.150 C 256.599 128.353,256.713 127.295,256.781 126.800 L 256.904 125.900 258.669 125.842 L 260.435 125.784 261.320 123.889 C 262.693 120.951,262.771 121.095,259.828 121.124 L 257.356 121.148 257.499 119.224 C 257.678 116.813,257.485 117.004,259.762 116.977 C 260.828 116.964,262.279 116.896,262.987 116.827 L 264.274 116.700 265.034 114.822 C 266.318 111.650,266.358 111.709,263.100 112.026 M271.442 112.496 C 268.188 113.295,268.600 112.626,268.278 117.641 C 267.532 129.238,267.235 131.993,266.570 133.467 C 265.726 135.337,265.414 135.252,272.337 135.022 C 279.862 134.771,279.260 135.025,280.425 131.611 C 281.158 129.463,281.314 129.540,277.092 129.974 C 275.116 130.177,273.466 130.315,273.426 130.280 C 273.341 130.209,274.214 120.119,274.925 112.950 C 275.064 111.549,275.217 111.569,271.442 112.496 M237.345 117.028 C 239.947 118.636,240.823 123.773,239.084 127.226 C 238.164 129.052,236.441 130.216,234.233 130.503 L 233.166 130.642 233.286 129.571 C 233.351 128.982,233.539 126.835,233.703 124.800 C 234.190 118.751,234.429 116.709,234.671 116.541 C 235.044 116.283,236.598 116.566,237.345 117.028 M214.528 117.519 C 218.052 119.528,217.682 127.722,213.981 129.610 C 210.350 131.462,207.302 128.943,207.314 124.100 C 207.328 118.640,210.853 115.424,214.528 117.519 M204.300 138.903 C 201.269 139.577,201.307 139.533,199.405 144.600 C 195.851 154.071,196.274 153.400,193.859 153.400 L 192.768 153.400 192.906 154.050 C 192.981 154.408,193.351 155.291,193.728 156.014 L 194.412 157.329 193.812 158.804 C 193.482 159.615,193.232 160.295,193.256 160.315 C 193.553 160.558,195.739 161.667,196.533 161.977 C 197.789 162.468,197.741 162.512,198.769 159.974 L 199.528 158.100 202.735 158.045 C 206.441 157.982,206.104 157.803,206.903 160.257 C 207.664 162.594,207.436 162.531,210.953 161.377 C 213.953 160.392,213.991 160.372,213.716 159.939 C 213.372 159.397,211.609 154.255,209.898 148.800 C 208.811 145.335,206.584 139.098,206.366 138.907 C 206.103 138.677,205.322 138.675,204.300 138.903 M222.281 139.012 C 218.917 139.338,217.032 139.792,216.634 140.371 C 215.866 141.487,214.374 144.241,214.479 144.346 C 214.540 144.407,215.274 144.346,216.111 144.211 C 216.948 144.076,217.664 143.997,217.703 144.036 C 217.767 144.100,217.495 148.006,216.711 158.287 C 216.341 163.137,216.070 162.856,219.800 161.500 C 222.803 160.409,222.469 160.999,222.891 156.038 C 223.084 153.762,223.275 151.866,223.315 151.823 C 223.354 151.781,224.085 153.221,224.938 155.023 C 227.777 161.017,228.468 162.295,228.903 162.358 C 229.377 162.426,235.600 159.491,235.600 159.199 C 235.600 159.090,235.302 159.000,234.938 159.000 C 233.857 159.000,233.559 158.626,230.829 153.846 C 228.898 150.465,228.979 150.964,230.250 150.239 C 232.938 148.706,234.107 146.989,234.088 144.600 C 234.053 140.161,230.035 138.259,222.281 139.012 M183.055 139.308 C 171.800 142.339,171.512 159.564,182.677 161.935 C 184.969 162.422,188.473 162.049,190.459 161.106 L 191.200 160.754 191.200 158.256 C 191.200 155.954,191.172 155.769,190.850 155.904 C 184.846 158.425,181.383 156.565,181.358 150.807 C 181.333 145.119,185.303 142.632,190.314 145.198 C 191.644 145.879,192.479 146.201,192.600 146.080 C 192.803 145.877,192.537 140.983,192.302 140.603 C 191.501 139.307,185.948 138.529,183.055 139.308 M243.250 139.297 C 239.359 140.389,237.479 142.725,237.634 146.274 C 237.761 149.178,238.209 149.904,241.600 152.700 C 244.667 155.230,244.984 155.707,244.149 156.542 C 243.086 157.605,240.739 157.405,238.774 156.083 C 238.216 155.707,237.724 155.400,237.680 155.400 C 237.560 155.400,237.625 158.728,237.772 160.100 L 237.900 161.300 238.965 161.653 C 245.834 163.932,253.069 158.945,251.321 153.138 C 250.829 151.503,249.820 150.405,247.055 148.499 C 244.054 146.430,244.000 146.373,244.000 145.293 C 244.000 143.014,247.316 142.967,249.863 145.209 C 250.357 145.644,250.867 146.000,250.997 146.000 C 251.304 146.000,251.052 140.628,250.725 140.217 C 249.898 139.179,245.569 138.646,243.250 139.297 M226.880 143.279 C 229.031 144.178,228.508 147.195,225.900 148.926 C 224.633 149.767,223.295 150.071,223.460 149.480 C 223.518 149.271,223.678 147.777,223.815 146.160 C 224.045 143.436,224.094 143.213,224.482 143.137 C 225.376 142.961,226.241 143.012,226.880 143.279 M204.297 150.400 C 204.586 151.775,204.868 153.058,204.925 153.250 C 205.017 153.566,204.840 153.600,203.092 153.600 C 201.627 153.600,201.180 153.539,201.253 153.350 C 201.305 153.213,201.831 151.622,202.420 149.815 C 203.393 146.832,203.505 146.592,203.632 147.215 C 203.709 147.592,204.008 149.025,204.297 150.400 M203.609 165.268 C 203.373 166.110,203.290 166.190,202.328 166.502 C 191.182 170.120,191.118 187.459,202.246 189.005 C 210.091 190.096,216.800 184.100,216.800 176.000 C 216.800 169.205,212.916 165.396,205.080 164.506 L 203.861 164.368 203.609 165.268 M313.819 164.850 C 313.725 165.097,313.614 165.477,313.573 165.693 C 313.518 165.976,313.078 166.241,312.006 166.637 C 300.339 170.943,301.782 188.978,313.800 189.057 C 321.420 189.108,326.862 183.711,326.868 176.100 C 326.873 169.430,323.709 165.984,316.400 164.699 C 314.179 164.309,314.021 164.318,313.819 164.850 M184.480 165.999 C 176.491 167.171,172.041 176.097,175.719 183.572 C 178.226 188.666,184.917 190.646,190.650 187.991 L 191.200 187.736 191.200 185.246 C 191.200 182.953,191.172 182.769,190.850 182.904 C 188.715 183.801,188.444 183.862,186.488 183.880 C 182.985 183.914,181.376 182.007,181.358 177.798 C 181.340 173.760,183.536 171.112,186.900 171.117 C 188.342 171.119,188.504 171.177,191.563 172.798 C 192.764 173.434,192.820 173.300,192.607 170.295 C 192.434 167.847,192.394 167.678,191.905 167.288 C 190.540 166.199,187.140 165.609,184.480 165.999 M223.557 166.473 C 220.405 167.250,220.694 166.806,220.424 171.300 C 219.753 182.468,219.405 185.813,218.764 187.257 C 217.886 189.236,217.727 189.155,222.332 189.057 C 231.685 188.859,231.459 188.925,232.391 186.126 C 233.247 183.558,233.239 183.518,231.950 183.663 C 228.580 184.043,225.781 184.247,225.656 184.123 C 225.528 183.995,225.875 179.587,226.713 170.700 C 227.241 165.093,227.538 165.490,223.557 166.473 M239.205 166.484 L 236.510 167.139 236.378 167.819 C 236.305 168.194,236.187 169.670,236.116 171.100 C 235.670 179.989,235.018 186.117,234.370 187.502 C 233.487 189.388,232.598 189.250,243.188 188.872 C 247.181 188.729,247.187 188.726,248.165 185.809 C 248.966 183.421,249.113 183.507,244.934 183.928 C 242.999 184.123,241.363 184.230,241.300 184.167 C 241.197 184.064,241.568 179.594,242.499 169.697 C 242.664 167.936,242.800 166.338,242.800 166.147 C 242.800 165.672,242.388 165.710,239.205 166.484 M262.700 166.108 C 261.050 166.248,258.156 166.371,256.269 166.381 L 252.839 166.400 251.594 168.426 C 249.869 171.233,249.871 171.200,251.401 171.200 L 252.648 171.200 252.509 173.750 L 252.369 176.300 251.284 177.900 C 249.976 179.828,249.983 179.743,251.117 179.913 L 252.034 180.050 251.907 181.975 C 251.715 184.917,251.628 185.278,250.784 186.678 C 249.607 188.629,249.392 188.483,253.900 188.795 C 262.852 189.413,262.976 189.389,264.612 186.681 C 265.967 184.437,266.200 184.600,261.625 184.600 L 257.649 184.600 257.735 183.750 C 257.782 183.283,257.884 182.225,257.960 181.400 L 258.100 179.900 259.832 179.842 C 261.844 179.776,261.706 179.887,262.782 177.441 C 263.945 174.798,264.056 174.955,261.082 175.034 L 258.564 175.100 258.688 173.800 C 258.756 173.085,258.860 172.176,258.919 171.779 L 259.025 171.058 262.263 170.879 L 265.500 170.700 266.366 168.536 C 266.843 167.346,267.183 166.244,267.122 166.086 C 266.996 165.756,266.849 165.757,262.700 166.108 M277.190 166.005 C 269.314 167.218,264.861 176.057,268.419 183.414 C 270.951 188.651,277.632 190.685,283.450 187.991 L 284.000 187.736 284.000 185.268 C 284.000 183.911,283.971 182.800,283.934 182.800 C 283.898 182.800,283.298 183.032,282.601 183.315 C 277.524 185.378,274.102 183.068,274.139 177.600 C 274.165 173.631,276.321 171.117,279.700 171.115 C 281.140 171.115,281.660 171.306,284.336 172.821 C 285.420 173.435,285.457 173.374,285.409 171.059 C 285.342 167.848,285.259 167.590,284.097 166.957 C 282.512 166.093,279.400 165.664,277.190 166.005 M297.200 166.123 C 294.285 166.273,291.055 166.464,290.022 166.547 L 288.144 166.700 287.272 169.000 C 286.149 171.960,286.037 171.800,289.224 171.800 L 291.860 171.800 291.733 173.750 C 291.663 174.822,291.431 177.905,291.218 180.600 C 290.407 190.866,290.063 189.844,293.879 188.504 L 296.555 187.564 296.662 186.832 C 296.721 186.429,297.064 182.883,297.425 178.950 L 298.081 171.800 300.416 171.800 C 302.151 171.800,302.810 171.729,302.979 171.525 C 303.253 171.195,305.000 166.495,305.000 166.087 C 305.000 165.742,304.624 165.743,297.200 166.123 M335.900 166.035 C 335.020 166.135,333.546 166.370,332.624 166.558 L 330.948 166.900 329.686 169.096 C 328.210 171.665,328.182 171.522,330.111 171.211 C 330.948 171.076,331.681 171.014,331.739 171.073 C 331.798 171.132,331.603 174.492,331.305 178.540 C 330.464 189.978,330.496 189.173,330.872 189.317 C 331.271 189.470,336.597 187.606,336.608 187.310 C 336.647 186.246,337.363 178.970,337.435 178.898 C 337.487 178.846,338.558 180.978,339.815 183.636 C 343.008 190.389,342.273 189.914,346.451 187.920 C 349.817 186.314,350.248 186.000,349.085 186.000 C 348.079 186.000,347.459 185.293,345.647 182.078 C 344.847 180.660,343.967 179.121,343.689 178.657 L 343.186 177.814 344.219 177.290 C 346.715 176.025,348.196 173.907,348.196 171.600 C 348.196 167.093,343.863 165.132,335.900 166.035 M341.093 170.284 C 343.622 171.341,341.932 175.625,338.590 176.626 C 337.520 176.947,337.524 176.960,337.786 174.161 C 338.124 170.564,338.188 170.235,338.566 170.135 C 339.285 169.945,340.445 170.013,341.093 170.284 M206.887 171.018 C 211.328 172.136,211.690 181.199,207.391 183.597 C 204.015 185.480,200.733 182.828,200.709 178.200 C 200.685 173.321,203.418 170.144,206.887 171.018 M317.743 171.271 C 321.941 173.441,321.213 182.571,316.736 183.901 C 313.313 184.917,310.782 182.442,310.783 178.082 C 310.784 173.017,314.358 169.520,317.743 171.271 " stroke="none" fill="#fa4353" fill-rule="evenodd"></path><path id="path1" d="M0.000 150.000 L 0.000 300.000 200.000 300.000 L 400.000 300.000 400.000 150.000 L 400.000 0.000 200.000 0.000 L 0.000 0.000 0.000 150.000 M167.089 109.801 C 167.739 110.907,167.739 188.894,167.089 190.000 C 166.843 190.419,166.521 190.700,166.289 190.700 C 166.045 190.700,165.770 190.440,165.549 190.000 C 164.996 188.895,165.106 110.378,165.663 109.529 C 166.123 108.826,166.566 108.911,167.089 109.801 M214.097 110.902 C 220.550 112.366,223.389 115.786,223.397 122.108 C 223.407 129.498,218.344 134.825,210.998 135.154 C 198.301 135.721,196.234 117.340,208.460 112.591 C 209.415 112.220,209.925 111.908,209.974 111.666 C 210.275 110.182,210.633 110.116,214.097 110.902 M274.713 116.149 C 274.512 118.432,274.146 122.505,273.899 125.200 C 273.653 127.895,273.474 130.127,273.502 130.160 C 273.530 130.193,275.181 130.062,277.170 129.870 C 281.429 129.458,281.226 129.356,280.514 131.556 C 279.356 135.137,279.807 134.948,272.021 135.126 L 266.000 135.264 266.000 134.825 C 266.000 134.584,266.239 133.917,266.532 133.343 C 267.113 132.205,267.374 129.760,268.097 118.700 C 268.269 116.060,268.450 113.715,268.499 113.490 C 268.599 113.025,274.517 111.484,274.889 111.825 C 275.008 111.934,274.942 113.548,274.713 116.149 M183.986 116.851 L 185.523 121.802 187.583 117.427 L 189.642 113.051 191.996 112.426 C 194.528 111.752,195.103 111.681,195.308 112.014 C 195.597 112.480,198.376 132.987,198.241 133.654 C 198.101 134.344,193.417 135.788,192.922 135.293 C 192.523 134.894,192.252 133.521,191.898 130.100 C 191.570 126.923,191.030 122.763,190.934 122.667 C 190.903 122.636,189.667 124.827,188.188 127.537 C 183.899 135.397,183.956 135.407,181.570 126.400 C 181.206 125.025,180.877 124.080,180.839 124.300 C 180.586 125.761,178.317 135.143,178.173 135.324 C 177.828 135.757,173.680 134.641,173.455 134.055 C 173.391 133.889,173.536 133.066,173.777 132.226 C 174.018 131.387,174.431 129.620,174.694 128.300 C 176.049 121.517,177.919 113.199,178.136 112.991 C 178.418 112.722,181.476 111.823,181.975 111.862 C 182.414 111.897,182.563 112.267,183.986 116.851 M238.500 112.101 C 243.781 113.210,246.710 116.644,246.687 121.700 C 246.650 130.053,240.353 134.826,228.950 135.144 C 224.532 135.267,224.761 135.472,226.173 132.646 L 227.145 130.700 227.573 124.900 C 227.809 121.710,228.051 118.660,228.111 118.123 L 228.221 117.146 227.560 117.285 C 225.343 117.754,224.328 117.626,224.739 116.931 C 225.041 116.421,229.069 112.775,229.686 112.453 C 231.043 111.746,235.886 111.552,238.500 112.101 M265.929 112.103 C 266.062 112.449,264.648 116.323,264.240 116.731 C 264.054 116.918,263.403 117.000,262.115 117.000 C 261.094 117.000,259.710 117.057,259.040 117.127 L 257.822 117.255 257.701 118.377 C 257.634 118.995,257.530 119.846,257.469 120.269 L 257.358 121.038 259.629 120.997 C 260.878 120.975,262.024 120.966,262.175 120.978 C 262.578 121.010,262.362 121.828,261.392 123.947 C 260.460 125.981,260.442 125.993,258.362 125.997 C 256.751 126.001,256.875 125.818,256.697 128.450 L 256.552 130.600 260.476 130.600 C 263.817 130.600,264.400 130.644,264.400 130.898 C 264.400 131.369,262.197 134.787,261.733 135.036 C 260.954 135.453,249.203 134.883,248.725 134.405 C 248.620 134.300,248.921 133.581,249.453 132.663 L 250.360 131.100 250.500 128.550 L 250.640 126.000 249.945 126.000 C 248.707 126.000,248.697 125.634,249.890 123.996 L 250.967 122.517 251.093 120.408 C 251.162 119.249,251.262 118.097,251.313 117.850 C 251.403 117.423,251.347 117.400,250.198 117.400 C 248.555 117.400,248.552 117.256,250.132 114.635 L 251.480 112.400 254.490 112.381 C 256.146 112.371,258.895 112.249,260.600 112.109 C 265.089 111.743,265.790 111.742,265.929 112.103 M234.509 116.850 C 234.412 117.158,233.396 129.077,233.398 129.878 L 233.400 130.456 234.473 130.345 C 239.568 129.819,241.868 122.109,238.182 117.910 C 237.176 116.764,234.756 116.066,234.509 116.850 M210.698 117.373 C 207.640 118.762,206.272 124.406,208.155 127.865 C 210.004 131.263,214.773 130.562,216.275 126.672 C 218.399 121.167,214.962 115.436,210.698 117.373 M100.634 132.731 C 101.144 133.192,101.143 133.194,99.769 137.259 C 98.280 141.659,97.766 142.337,96.714 141.286 C 96.267 140.838,96.272 140.815,97.629 136.766 C 99.124 132.310,99.545 131.745,100.634 132.731 M78.283 136.838 C 79.895 146.921,100.401 147.104,102.092 137.050 L 102.235 136.200 103.768 136.202 C 110.125 136.210,127.877 138.237,134.495 139.710 C 136.994 140.266,138.284 140.944,138.898 142.021 L 139.300 142.728 140.144 142.081 C 142.969 139.913,145.400 140.319,145.400 142.959 L 145.400 143.739 146.450 143.376 C 149.320 142.384,153.014 143.473,156.038 146.203 C 158.505 148.429,158.861 149.603,156.616 148.111 C 147.591 142.111,137.478 147.788,137.843 158.649 C 137.910 160.646,137.875 161.011,137.611 161.088 C 135.665 161.650,99.649 161.978,90.791 161.515 L 87.882 161.363 88.230 160.031 C 90.801 150.177,81.302 141.270,71.670 144.504 C 66.153 146.356,62.900 150.972,62.900 156.950 L 62.900 159.400 62.400 159.396 C 61.323 159.388,57.655 158.809,56.848 158.521 C 51.047 156.447,48.045 146.736,51.986 142.795 C 54.641 140.139,63.595 137.564,74.500 136.320 C 78.318 135.884,78.126 135.858,78.283 136.838 M206.361 138.853 C 206.747 139.318,208.401 143.836,209.999 148.789 C 212.358 156.105,213.559 159.610,213.810 159.912 C 214.185 160.363,213.923 160.506,210.909 161.494 C 207.404 162.642,207.571 162.694,206.784 160.210 C 206.250 158.528,206.078 158.195,205.723 158.172 C 205.490 158.156,204.029 158.133,202.475 158.122 L 199.649 158.100 198.767 160.200 C 197.717 162.700,197.721 162.698,195.058 161.379 C 193.023 160.371,193.050 160.426,193.749 158.722 L 194.308 157.358 193.544 155.839 C 192.413 153.588,192.506 153.325,194.470 153.200 L 196.039 153.100 196.729 151.400 C 197.108 150.465,197.821 148.575,198.315 147.200 C 200.267 141.759,201.163 139.877,201.971 139.522 C 203.767 138.733,205.981 138.396,206.361 138.853 M189.029 139.089 C 190.303 139.359,191.520 139.869,192.237 140.434 C 192.510 140.650,192.601 141.223,192.714 143.450 L 192.854 146.200 192.377 146.199 C 192.115 146.199,191.405 145.902,190.800 145.539 C 185.636 142.438,181.047 145.256,181.458 151.274 C 181.789 156.127,184.736 158.056,189.300 156.408 C 191.598 155.579,191.400 155.433,191.400 157.960 C 191.400 161.012,191.180 161.286,188.229 161.911 C 180.430 163.564,174.400 158.834,174.400 151.063 C 174.400 143.021,181.225 137.435,189.029 139.089 M229.930 139.276 C 235.542 141.059,235.637 147.633,230.092 150.454 L 229.216 150.900 231.313 154.490 C 233.798 158.744,233.800 158.745,234.928 158.915 C 236.093 159.089,235.830 159.424,233.800 160.350 C 232.975 160.727,231.688 161.342,230.939 161.717 C 228.474 162.954,228.700 163.160,225.800 157.027 C 224.546 154.373,223.462 152.268,223.393 152.351 C 223.324 152.433,223.114 154.295,222.927 156.490 C 222.740 158.684,222.550 160.517,222.505 160.562 C 222.246 160.821,217.486 162.400,216.964 162.400 L 216.340 162.400 216.466 160.450 C 216.536 159.378,216.774 156.070,216.996 153.100 C 217.741 143.107,217.715 143.938,217.281 144.065 C 216.334 144.344,214.508 144.587,214.379 144.451 C 214.301 144.368,214.818 143.293,215.529 142.062 L 216.820 139.824 217.960 139.585 C 221.949 138.746,227.787 138.596,229.930 139.276 M249.432 139.391 C 251.029 139.989,251.041 140.014,251.155 143.204 C 251.273 146.486,251.199 146.576,249.573 145.114 C 247.366 143.130,244.000 143.211,244.000 145.248 C 244.000 146.192,244.309 146.530,246.541 148.028 C 250.894 150.948,252.084 152.826,251.584 155.988 C 250.878 160.456,244.783 163.394,239.373 161.876 C 237.710 161.410,237.671 161.331,237.535 158.150 C 237.411 155.254,237.599 154.734,238.413 155.716 C 239.842 157.437,244.400 157.527,244.400 155.833 C 244.400 155.106,244.218 154.895,242.200 153.292 C 238.223 150.134,237.556 149.108,237.521 146.100 C 237.461 140.783,243.724 137.255,249.432 139.391 M224.126 143.950 C 223.929 145.310,223.554 149.621,223.628 149.686 C 223.871 149.903,225.681 149.079,226.451 148.401 C 229.192 145.989,228.643 143.200,225.428 143.200 L 224.235 143.200 224.126 143.950 M78.489 145.797 C 86.731 147.905,89.519 158.086,83.502 164.102 C 76.563 171.042,64.906 166.214,64.906 156.400 C 64.906 149.162,71.505 144.011,78.489 145.797 M202.496 149.900 C 201.948 151.550,201.471 153.013,201.435 153.150 C 201.387 153.336,201.817 153.400,203.110 153.400 L 204.850 153.400 204.727 152.850 C 204.659 152.547,204.354 151.085,204.048 149.600 L 203.493 146.900 202.496 149.900 M151.223 147.403 C 158.835 148.838,161.836 158.070,156.534 163.739 C 151.002 169.652,141.223 166.639,139.782 158.578 C 138.628 152.119,144.712 146.176,151.223 147.403 M74.347 150.206 C 67.091 152.028,68.334 162.697,75.800 162.683 C 81.427 162.673,84.248 155.893,80.277 151.923 C 78.824 150.469,76.258 149.726,74.347 150.206 M148.584 151.621 C 145.841 152.028,144.013 154.219,144.004 157.111 C 143.989 161.965,149.665 164.387,153.234 161.049 C 157.194 157.344,153.977 150.821,148.584 151.621 M208.300 165.024 C 214.111 166.480,216.873 170.049,216.868 176.100 C 216.862 183.400,211.830 188.752,204.600 189.147 C 191.650 189.855,189.670 170.695,202.251 166.418 C 203.150 166.113,203.326 165.966,203.499 165.381 C 203.609 165.007,203.764 164.602,203.841 164.483 C 204.018 164.212,206.036 164.457,208.300 165.024 M316.400 164.615 C 323.535 165.725,326.984 169.469,326.997 176.118 C 327.012 184.255,319.627 190.510,311.752 189.030 C 301.154 187.038,301.526 169.746,312.238 166.473 C 313.101 166.209,313.403 166.016,313.489 165.671 C 313.790 164.474,313.987 164.189,314.447 164.286 C 314.696 164.339,315.575 164.487,316.400 164.615 M227.121 165.882 C 227.181 166.038,227.087 167.680,226.914 169.532 C 226.030 178.954,225.592 184.059,225.660 184.127 C 225.702 184.168,227.020 184.067,228.589 183.901 C 233.633 183.369,233.419 183.261,232.538 185.891 C 231.470 189.076,231.896 188.920,223.681 189.125 C 217.455 189.281,217.736 189.373,218.601 187.467 C 219.266 186.000,219.523 183.640,220.299 171.882 C 220.465 169.373,220.668 167.254,220.750 167.173 C 220.888 167.037,226.175 165.673,226.756 165.622 C 226.897 165.610,227.061 165.727,227.121 165.882 M242.741 165.934 C 242.865 166.259,242.622 169.420,241.710 179.300 C 241.466 181.940,241.286 184.127,241.310 184.160 C 241.333 184.193,242.680 184.080,244.302 183.910 C 248.252 183.495,248.800 183.502,248.800 183.965 C 248.800 185.102,247.403 188.277,246.748 188.628 C 246.258 188.890,241.238 189.169,236.650 189.188 C 233.353 189.202,233.436 189.271,234.371 187.293 C 234.834 186.315,234.969 185.689,235.085 183.993 C 235.163 182.842,235.350 180.460,235.500 178.700 C 235.650 176.940,235.884 173.682,236.019 171.460 C 236.314 166.591,235.916 167.194,239.400 166.342 C 242.885 165.490,242.584 165.527,242.741 165.934 M190.100 166.314 C 190.650 166.508,191.423 166.868,191.819 167.116 L 192.538 167.566 192.669 169.414 C 192.970 173.656,192.898 173.775,190.798 172.499 C 185.711 169.408,181.049 172.291,181.458 178.274 C 181.801 183.302,185.251 185.253,190.047 183.132 C 191.449 182.512,191.400 182.444,191.400 185.017 C 191.400 188.005,191.170 188.288,188.229 188.911 C 179.412 190.780,172.783 184.083,174.618 175.160 C 175.989 168.494,183.725 164.075,190.100 166.314 M267.200 166.267 C 267.200 166.698,265.748 170.519,265.483 170.784 C 265.419 170.848,263.986 170.946,262.297 171.003 C 258.681 171.124,259.087 170.868,258.863 173.172 L 258.681 175.043 261.090 174.972 C 264.034 174.884,264.014 174.851,262.747 177.721 L 261.873 179.700 260.050 179.876 L 258.226 180.052 258.120 180.776 C 258.061 181.174,257.954 182.197,257.883 183.050 L 257.753 184.600 261.677 184.600 C 266.329 184.600,266.160 184.445,264.428 187.124 C 262.921 189.454,262.749 189.491,255.700 189.003 C 249.109 188.546,249.482 188.723,250.706 186.634 C 251.530 185.228,251.568 185.090,251.691 183.036 C 251.762 181.861,251.860 180.703,251.911 180.462 C 251.992 180.072,251.908 180.016,251.153 179.962 C 249.986 179.877,249.990 179.541,251.174 177.916 C 252.080 176.673,252.174 176.438,252.288 175.129 C 252.356 174.343,252.463 173.183,252.525 172.550 L 252.639 171.400 251.544 171.400 C 249.813 171.400,249.806 171.218,251.436 168.538 L 252.858 166.200 257.079 166.174 C 259.401 166.159,261.975 166.084,262.800 166.006 C 266.184 165.687,267.200 165.747,267.200 166.267 M281.954 166.102 C 283.151 166.384,285.068 167.220,285.264 167.546 C 285.315 167.631,285.423 168.938,285.503 170.450 L 285.648 173.200 285.200 173.200 C 284.954 173.200,284.233 172.885,283.598 172.499 C 278.865 169.624,274.584 171.739,274.249 177.118 C 274.045 180.379,275.403 183.303,277.304 183.697 C 277.577 183.754,278.002 183.839,278.250 183.887 C 279.094 184.049,281.497 183.658,282.739 183.156 C 284.186 182.571,284.201 182.585,284.198 184.466 C 284.193 187.937,283.997 188.213,281.061 188.875 C 273.307 190.624,267.159 185.821,267.141 178.000 C 267.121 170.014,274.253 164.286,281.954 166.102 M305.085 165.975 C 305.186 166.139,303.645 170.568,303.192 171.414 C 303.006 171.762,302.752 171.800,300.611 171.800 L 298.235 171.800 298.124 172.550 C 298.063 172.963,297.728 176.450,297.380 180.300 C 297.015 184.338,296.653 187.395,296.524 187.524 C 296.195 187.853,291.745 189.400,291.128 189.400 C 290.412 189.400,290.441 188.047,291.386 177.000 C 291.494 175.735,291.632 174.048,291.693 173.250 L 291.803 171.800 289.101 171.800 C 285.892 171.800,286.040 172.033,287.237 168.861 C 288.240 166.201,287.406 166.511,294.400 166.196 C 297.095 166.074,299.525 165.949,299.800 165.917 C 301.045 165.775,304.987 165.818,305.085 165.975 M344.281 166.372 C 349.693 168.331,349.784 174.197,344.450 177.239 C 343.178 177.965,343.115 177.511,344.924 180.653 C 347.366 184.893,347.991 185.800,348.473 185.803 C 350.530 185.816,350.165 186.243,346.675 187.909 C 342.225 190.032,342.953 190.453,339.893 183.986 C 338.596 181.243,337.510 179.023,337.481 179.052 C 337.452 179.082,337.271 180.931,337.079 183.163 C 336.667 187.940,336.902 187.536,333.937 188.573 C 330.149 189.899,330.347 190.107,330.720 185.186 C 331.590 173.702,331.775 171.108,331.726 171.060 C 331.697 171.030,331.004 171.134,330.186 171.291 C 329.369 171.447,328.624 171.500,328.532 171.409 C 328.412 171.291,330.332 167.582,330.891 166.853 C 330.958 166.766,333.938 166.183,335.224 166.005 C 337.631 165.672,342.942 165.888,344.281 166.372 M338.187 170.850 C 338.179 171.208,338.063 172.648,337.929 174.050 L 337.685 176.600 338.151 176.600 C 339.288 176.600,341.378 174.981,341.922 173.677 C 342.818 171.533,341.922 170.200,339.585 170.200 L 338.200 170.200 338.187 170.850 M203.970 171.403 C 200.007 173.497,199.632 181.678,203.411 183.606 C 205.930 184.890,208.866 183.313,209.828 180.159 C 211.595 174.364,208.141 169.200,203.970 171.403 M314.050 171.421 C 310.058 173.397,309.684 181.753,313.505 183.602 C 317.308 185.443,320.673 181.816,320.354 176.221 C 320.121 172.128,317.166 169.879,314.050 171.421 " stroke="none" fill="#2c2434" fill-rule="evenodd"></path><path id="path2" d="M99.235 132.857 C 98.891 133.272,96.600 140.036,96.600 140.637 C 96.600 141.582,97.956 141.906,98.299 141.042 C 98.981 139.327,100.800 133.847,100.800 133.510 C 100.800 132.697,99.736 132.254,99.235 132.857 M73.000 136.618 C 63.044 137.922,55.146 140.185,52.442 142.508 C 48.354 146.020,50.520 155.268,56.071 158.001 C 57.292 158.602,58.216 158.794,62.114 159.256 L 62.927 159.352 62.756 158.126 C 61.812 151.392,67.165 144.697,74.200 143.813 C 83.171 142.685,90.783 151.441,88.351 160.091 C 88.167 160.747,88.035 161.299,88.058 161.318 C 88.812 161.953,129.236 161.753,136.403 161.080 L 137.706 160.958 137.715 158.229 C 137.750 147.525,147.636 142.085,156.487 147.899 C 158.004 148.895,158.258 148.924,157.619 148.027 C 155.028 144.388,149.651 142.263,146.286 143.547 L 145.272 143.934 145.286 142.982 C 145.323 140.467,142.608 140.114,140.052 142.302 C 139.097 143.119,139.000 143.144,139.000 142.569 C 139.000 141.848,137.555 140.664,136.142 140.228 C 131.736 138.867,116.811 137.028,104.277 136.303 L 102.254 136.185 102.155 137.064 C 100.993 147.367,80.387 147.098,78.113 136.750 C 77.963 136.067,77.331 136.050,73.000 136.618 M73.042 145.911 C 64.754 148.142,62.191 158.480,68.472 164.341 C 75.318 170.730,86.600 165.788,86.600 156.400 C 86.600 149.369,79.784 144.096,73.042 145.911 M146.817 147.718 C 140.001 149.550,137.513 158.233,142.282 163.538 C 146.794 168.557,155.043 167.456,158.056 161.434 C 161.825 153.900,154.964 145.527,146.817 147.718 M78.400 150.514 C 84.583 153.379,82.875 162.385,76.078 162.758 C 69.086 163.142,66.745 153.575,73.096 150.570 C 74.747 149.789,76.789 149.767,78.400 150.514 M151.939 151.967 C 156.175 154.138,156.123 160.042,151.850 162.133 C 148.386 163.828,144.203 161.457,143.853 157.600 C 143.457 153.226,148.093 149.995,151.939 151.967 " stroke="none" fill="#dbdbdb" fill-rule="evenodd"></path><path id="path3" d="M167.498 149.900 C 167.498 170.910,167.521 179.535,167.550 169.066 C 167.579 158.597,167.579 141.407,167.550 130.866 C 167.521 120.325,167.498 128.890,167.498 149.900 M263.850 111.938 C 264.043 111.988,264.358 111.988,264.550 111.938 C 264.743 111.888,264.585 111.846,264.200 111.846 C 263.815 111.846,263.657 111.888,263.850 111.938 M261.050 112.138 C 261.243 112.188,261.558 112.188,261.750 112.138 C 261.943 112.088,261.785 112.046,261.400 112.046 C 261.015 112.046,260.858 112.088,261.050 112.138 M258.352 112.341 C 258.601 112.389,258.961 112.387,259.152 112.337 C 259.344 112.287,259.140 112.248,258.700 112.250 C 258.260 112.253,258.104 112.294,258.352 112.341 M274.846 113.600 C 274.846 113.985,274.888 114.142,274.938 113.950 C 274.988 113.758,274.988 113.442,274.938 113.250 C 274.888 113.058,274.846 113.215,274.846 113.600 M227.491 114.250 L 226.700 115.100 227.550 114.309 C 228.340 113.574,228.492 113.400,228.341 113.400 C 228.308 113.400,227.925 113.783,227.491 114.250 M203.789 115.550 L 203.100 116.300 203.850 115.611 C 204.548 114.969,204.692 114.800,204.539 114.800 C 204.506 114.800,204.168 115.138,203.789 115.550 M268.254 116.600 C 268.254 117.095,268.293 117.297,268.341 117.050 C 268.389 116.803,268.389 116.397,268.341 116.150 C 268.293 115.903,268.254 116.105,268.254 116.600 M235.050 116.538 C 235.243 116.588,235.558 116.588,235.750 116.538 C 235.943 116.488,235.785 116.446,235.400 116.446 C 235.015 116.446,234.857 116.488,235.050 116.538 M248.864 116.898 C 248.888 117.131,249.069 117.312,249.302 117.336 C 249.591 117.366,249.607 117.349,249.362 117.276 C 249.177 117.221,248.979 117.023,248.924 116.838 C 248.851 116.593,248.834 116.609,248.864 116.898 M262.450 116.943 C 262.752 116.989,263.248 116.989,263.550 116.943 C 263.853 116.897,263.605 116.860,263.000 116.860 C 262.395 116.860,262.147 116.897,262.450 116.943 M257.677 117.288 C 257.616 117.447,257.608 117.739,257.660 117.938 C 257.722 118.180,257.761 118.121,257.777 117.761 C 257.798 117.278,257.887 117.215,258.650 117.146 L 259.500 117.070 258.644 117.035 C 258.058 117.011,257.753 117.091,257.677 117.288 M274.446 117.800 C 274.446 118.185,274.488 118.343,274.538 118.150 C 274.588 117.958,274.588 117.642,274.538 117.450 C 274.488 117.258,274.446 117.415,274.446 117.800 M209.287 118.250 L 208.700 118.900 209.350 118.313 C 209.956 117.765,210.092 117.600,209.937 117.600 C 209.903 117.600,209.610 117.892,209.287 118.250 M251.246 118.400 C 251.246 118.785,251.288 118.942,251.338 118.750 C 251.388 118.558,251.388 118.243,251.338 118.050 C 251.288 117.858,251.246 118.015,251.246 118.400 M228.050 118.700 C 228.053 119.140,228.094 119.296,228.141 119.048 C 228.189 118.799,228.187 118.439,228.137 118.248 C 228.087 118.056,228.048 118.260,228.050 118.700 M268.050 119.700 C 268.053 120.140,268.094 120.296,268.141 120.048 C 268.189 119.799,268.187 119.439,268.137 119.248 C 268.087 119.056,268.048 119.260,268.050 119.700 M274.246 120.400 C 274.246 120.785,274.288 120.942,274.338 120.750 C 274.388 120.558,274.388 120.243,274.338 120.050 C 274.288 119.858,274.246 120.015,274.246 120.400 M234.046 120.600 C 234.046 120.985,234.088 121.142,234.138 120.950 C 234.188 120.758,234.188 120.442,234.138 120.250 C 234.088 120.058,234.046 120.215,234.046 120.600 M251.046 121.200 C 251.046 121.585,251.088 121.743,251.138 121.550 C 251.188 121.358,251.188 121.043,251.138 120.850 C 251.088 120.658,251.046 120.815,251.046 121.200 M227.850 121.500 C 227.853 121.940,227.894 122.096,227.941 121.848 C 227.989 121.599,227.987 121.239,227.937 121.048 C 227.887 120.856,227.848 121.060,227.850 121.500 M257.650 121.138 C 257.843 121.188,258.157 121.188,258.350 121.138 C 258.543 121.088,258.385 121.046,258.000 121.046 C 257.615 121.046,257.457 121.088,257.650 121.138 M216.867 122.800 C 216.867 123.625,216.903 123.963,216.946 123.550 C 216.989 123.138,216.989 122.463,216.946 122.050 C 216.903 121.638,216.867 121.975,216.867 122.800 M267.846 122.600 C 267.846 122.985,267.888 123.142,267.938 122.950 C 267.988 122.758,267.988 122.442,267.938 122.250 C 267.888 122.058,267.846 122.215,267.846 122.600 M267.646 125.000 C 267.646 125.385,267.688 125.543,267.738 125.350 C 267.788 125.158,267.788 124.843,267.738 124.650 C 267.688 124.458,267.646 124.615,267.646 125.000 M256.930 125.950 C 256.879 126.033,257.346 126.075,257.969 126.043 C 259.922 125.946,260.158 125.861,258.562 125.830 C 257.716 125.813,256.982 125.868,256.930 125.950 M227.446 126.600 C 227.446 126.985,227.488 127.142,227.538 126.950 C 227.588 126.758,227.588 126.442,227.538 126.250 C 227.488 126.058,227.446 126.215,227.446 126.600 M267.446 127.400 C 267.446 127.785,267.488 127.942,267.538 127.750 C 267.588 127.558,267.588 127.243,267.538 127.050 C 267.488 126.858,267.446 127.015,267.446 127.400 M214.887 128.850 L 214.300 129.500 214.950 128.913 C 215.556 128.365,215.692 128.200,215.537 128.200 C 215.503 128.200,215.210 128.493,214.887 128.850 M250.450 129.100 C 250.453 129.540,250.494 129.696,250.541 129.448 C 250.589 129.199,250.587 128.839,250.537 128.648 C 250.487 128.456,250.448 128.660,250.450 129.100 M227.246 129.200 C 227.246 129.585,227.288 129.743,227.338 129.550 C 227.388 129.358,227.388 129.042,227.338 128.850 C 227.288 128.657,227.246 128.815,227.246 129.200 M273.446 129.200 C 273.446 129.585,273.488 129.743,273.538 129.550 C 273.588 129.358,273.588 129.042,273.538 128.850 C 273.488 128.657,273.446 128.815,273.446 129.200 M267.246 130.000 C 267.246 130.385,267.288 130.542,267.338 130.350 C 267.388 130.157,267.388 129.843,267.338 129.650 C 267.288 129.458,267.246 129.615,267.246 130.000 M233.227 130.050 C 233.204 130.529,233.271 130.596,233.750 130.573 C 234.203 130.550,234.223 130.530,233.862 130.460 C 233.610 130.411,233.389 130.190,233.340 129.938 C 233.270 129.577,233.250 129.597,233.227 130.050 M211.350 130.141 C 211.597 130.189,212.003 130.189,212.250 130.141 C 212.498 130.093,212.295 130.054,211.800 130.054 C 211.305 130.054,211.103 130.093,211.350 130.141 M219.687 131.450 L 219.100 132.100 219.750 131.513 C 220.356 130.965,220.492 130.800,220.337 130.800 C 220.303 130.800,220.010 131.093,219.687 131.450 M203.500 132.600 C 203.930 133.040,204.326 133.400,204.381 133.400 C 204.436 133.400,204.130 133.040,203.700 132.600 C 203.270 132.160,202.874 131.800,202.819 131.800 C 202.764 131.800,203.070 132.160,203.500 132.600 M252.752 134.941 C 253.001 134.989,253.361 134.987,253.552 134.937 C 253.744 134.887,253.540 134.848,253.100 134.850 C 252.660 134.853,252.504 134.894,252.752 134.941 M276.853 134.944 C 277.157 134.989,277.607 134.988,277.853 134.941 C 278.099 134.893,277.850 134.856,277.300 134.857 C 276.750 134.859,276.549 134.898,276.853 134.944 M230.650 135.138 C 230.843 135.188,231.157 135.188,231.350 135.138 C 231.543 135.088,231.385 135.046,231.000 135.046 C 230.615 135.046,230.457 135.088,230.650 135.138 M255.850 135.143 C 256.153 135.189,256.647 135.189,256.950 135.143 C 257.252 135.097,257.005 135.060,256.400 135.060 C 255.795 135.060,255.548 135.097,255.850 135.143 M270.550 135.147 C 271.127 135.188,272.072 135.188,272.650 135.147 C 273.228 135.107,272.755 135.074,271.600 135.074 C 270.445 135.074,269.973 135.107,270.550 135.147 M185.456 138.947 C 185.982 138.989,186.792 138.988,187.256 138.946 C 187.720 138.904,187.290 138.870,186.300 138.871 C 185.310 138.872,184.930 138.906,185.456 138.947 M222.752 138.941 C 223.001 138.989,223.361 138.987,223.552 138.937 C 223.744 138.887,223.540 138.848,223.100 138.850 C 222.660 138.853,222.504 138.894,222.752 138.941 M245.346 138.944 C 245.701 138.989,246.331 138.989,246.746 138.946 C 247.160 138.903,246.870 138.867,246.100 138.866 C 245.330 138.865,244.990 138.900,245.346 138.944 M192.376 141.044 C 192.468 141.599,192.496 141.627,192.559 141.227 C 192.600 140.967,192.551 140.671,192.451 140.571 C 192.340 140.460,192.310 140.646,192.376 141.044 M251.060 142.600 C 251.060 143.205,251.097 143.453,251.143 143.150 C 251.189 142.847,251.189 142.353,251.143 142.050 C 251.097 141.748,251.060 141.995,251.060 142.600 M225.150 143.141 C 225.398 143.189,225.803 143.189,226.050 143.141 C 226.298 143.093,226.095 143.054,225.600 143.054 C 225.105 143.054,224.903 143.093,225.150 143.141 M192.654 144.000 C 192.654 144.495,192.693 144.697,192.741 144.450 C 192.789 144.203,192.789 143.797,192.741 143.550 C 192.693 143.303,192.654 143.505,192.654 144.000 M90.053 144.744 C 90.357 144.789,90.807 144.788,91.053 144.741 C 91.299 144.693,91.050 144.656,90.500 144.657 C 89.950 144.659,89.749 144.698,90.053 144.744 M237.460 145.800 C 237.460 146.405,237.497 146.653,237.543 146.350 C 237.589 146.047,237.589 145.553,237.543 145.250 C 237.497 144.947,237.460 145.195,237.460 145.800 M249.400 144.863 C 249.400 144.897,249.693 145.190,250.050 145.513 L 250.700 146.100 250.113 145.450 C 249.565 144.844,249.400 144.708,249.400 144.863 M217.446 147.000 C 217.446 147.385,217.488 147.542,217.538 147.350 C 217.588 147.157,217.588 146.843,217.538 146.650 C 217.488 146.458,217.446 146.615,217.446 147.000 M217.246 149.600 C 217.246 149.985,217.288 150.143,217.338 149.950 C 217.388 149.758,217.388 149.442,217.338 149.250 C 217.288 149.058,217.246 149.215,217.246 149.600 M217.050 152.300 C 217.053 152.740,217.094 152.896,217.141 152.648 C 217.189 152.399,217.187 152.039,217.137 151.848 C 217.087 151.656,217.048 151.860,217.050 152.300 M193.550 153.345 C 193.908 153.389,194.493 153.389,194.850 153.345 C 195.208 153.300,194.915 153.264,194.200 153.264 C 193.485 153.264,193.192 153.300,193.550 153.345 M201.200 153.450 C 201.200 153.532,202.055 153.600,203.100 153.600 C 204.145 153.600,205.000 153.532,205.000 153.450 C 205.000 153.368,204.145 153.300,203.100 153.300 C 202.055 153.300,201.200 153.368,201.200 153.450 M223.046 154.200 C 223.046 154.585,223.088 154.743,223.138 154.550 C 223.188 154.358,223.188 154.043,223.138 153.850 C 223.088 153.658,223.046 153.815,223.046 154.200 M216.850 155.300 C 216.853 155.740,216.894 155.896,216.941 155.648 C 216.989 155.399,216.987 155.039,216.937 154.848 C 216.887 154.656,216.848 154.860,216.850 155.300 M237.454 156.200 C 237.454 156.695,237.493 156.898,237.541 156.650 C 237.589 156.403,237.589 155.998,237.541 155.750 C 237.493 155.503,237.454 155.705,237.454 156.200 M191.276 158.100 C 191.277 159.420,191.309 159.934,191.348 159.242 C 191.387 158.550,191.387 157.470,191.348 156.842 C 191.308 156.214,191.276 156.780,191.276 158.100 M143.846 157.000 C 143.846 157.385,143.888 157.543,143.938 157.350 C 143.988 157.158,143.988 156.843,143.938 156.650 C 143.888 156.458,143.846 156.615,143.846 157.000 M216.646 158.000 C 216.646 158.385,216.688 158.543,216.738 158.350 C 216.788 158.158,216.788 157.843,216.738 157.650 C 216.688 157.458,216.646 157.615,216.646 158.000 M201.256 158.147 C 201.782 158.189,202.592 158.188,203.056 158.146 C 203.520 158.104,203.090 158.070,202.100 158.071 C 201.110 158.072,200.730 158.106,201.256 158.147 M237.657 160.100 C 237.659 160.650,237.698 160.851,237.744 160.547 C 237.789 160.243,237.788 159.793,237.741 159.547 C 237.693 159.301,237.656 159.550,237.657 160.100 M216.454 160.400 C 216.454 160.895,216.493 161.097,216.541 160.850 C 216.589 160.603,216.589 160.197,216.541 159.950 C 216.493 159.703,216.454 159.905,216.454 160.400 M91.154 161.545 C 91.513 161.589,92.053 161.589,92.354 161.543 C 92.654 161.497,92.360 161.461,91.700 161.462 C 91.040 161.463,90.794 161.500,91.154 161.545 M101.850 161.743 C 102.153 161.789,102.647 161.789,102.950 161.743 C 103.253 161.697,103.005 161.660,102.400 161.660 C 101.795 161.660,101.548 161.697,101.850 161.743 M127.152 161.741 C 127.401 161.789,127.761 161.787,127.952 161.737 C 128.144 161.687,127.940 161.648,127.500 161.650 C 127.060 161.653,126.904 161.694,127.152 161.741 M226.639 165.724 C 226.863 165.791,227.006 166.093,227.059 166.614 L 227.139 167.403 227.120 166.553 C 227.104 165.858,227.027 165.696,226.700 165.663 C 226.409 165.634,226.392 165.651,226.639 165.724 M187.250 165.938 C 187.442 165.988,187.758 165.988,187.950 165.938 C 188.143 165.888,187.985 165.846,187.600 165.846 C 187.215 165.846,187.058 165.888,187.250 165.938 M264.552 165.941 C 264.801 165.989,265.161 165.987,265.352 165.937 C 265.544 165.887,265.340 165.848,264.900 165.850 C 264.460 165.853,264.304 165.894,264.552 165.941 M279.952 165.941 C 280.201 165.989,280.561 165.987,280.752 165.937 C 280.944 165.887,280.740 165.848,280.300 165.850 C 279.860 165.853,279.704 165.894,279.952 165.941 M300.754 165.945 C 301.113 165.989,301.653 165.989,301.954 165.943 C 302.254 165.897,301.960 165.861,301.300 165.862 C 300.640 165.863,300.394 165.900,300.754 165.945 M261.850 166.138 C 262.043 166.188,262.358 166.188,262.550 166.138 C 262.743 166.088,262.585 166.046,262.200 166.046 C 261.815 166.046,261.657 166.088,261.850 166.138 M296.450 166.143 C 296.752 166.189,297.248 166.189,297.550 166.143 C 297.853 166.097,297.605 166.060,297.000 166.060 C 296.395 166.060,296.147 166.097,296.450 166.143 M252.730 166.350 C 252.679 166.433,253.776 166.477,255.169 166.448 C 259.839 166.352,260.328 166.279,256.562 166.239 C 254.506 166.218,252.782 166.268,252.730 166.350 M292.750 166.341 C 292.998 166.389,293.403 166.389,293.650 166.341 C 293.897 166.293,293.695 166.254,293.200 166.254 C 292.705 166.254,292.502 166.293,292.750 166.341 M289.253 166.544 C 289.557 166.589,290.007 166.588,290.253 166.541 C 290.499 166.493,290.250 166.456,289.700 166.457 C 289.150 166.459,288.949 166.498,289.253 166.544 M192.131 167.400 C 192.258 167.565,192.403 167.925,192.454 168.200 L 192.546 168.700 192.573 168.174 C 192.588 167.885,192.443 167.526,192.250 167.374 C 191.945 167.136,191.930 167.139,192.131 167.400 M284.932 167.400 C 285.060 167.565,285.204 167.970,285.252 168.300 L 285.340 168.900 285.370 168.274 C 285.389 167.888,285.266 167.544,285.050 167.374 C 284.745 167.136,284.730 167.139,284.932 167.400 M213.400 167.463 C 213.400 167.497,213.693 167.790,214.050 168.113 L 214.700 168.700 214.113 168.050 C 213.565 167.444,213.400 167.308,213.400 167.463 M220.454 169.400 C 220.454 169.895,220.493 170.097,220.541 169.850 C 220.589 169.603,220.589 169.197,220.541 168.950 C 220.493 168.703,220.454 168.905,220.454 169.400 M197.287 169.450 L 196.700 170.100 197.350 169.513 C 197.708 169.190,198.000 168.897,198.000 168.863 C 198.000 168.708,197.835 168.844,197.287 169.450 M192.657 170.900 C 192.659 171.450,192.698 171.651,192.744 171.347 C 192.789 171.043,192.788 170.593,192.741 170.347 C 192.693 170.101,192.656 170.350,192.657 170.900 M339.253 170.144 C 339.557 170.189,340.007 170.188,340.253 170.141 C 340.499 170.093,340.250 170.056,339.700 170.057 C 339.150 170.059,338.949 170.098,339.253 170.144 M236.050 170.900 C 236.053 171.340,236.094 171.496,236.141 171.248 C 236.189 170.999,236.187 170.639,236.137 170.448 C 236.087 170.256,236.048 170.460,236.050 170.900 M285.462 171.500 C 285.463 172.160,285.500 172.406,285.545 172.046 C 285.589 171.687,285.589 171.147,285.543 170.846 C 285.497 170.546,285.461 170.840,285.462 171.500 M205.450 170.938 C 205.643 170.988,205.957 170.988,206.150 170.938 C 206.343 170.888,206.185 170.846,205.800 170.846 C 205.415 170.846,205.257 170.888,205.450 170.938 M262.946 170.944 C 263.301 170.989,263.931 170.989,264.346 170.946 C 264.760 170.903,264.470 170.867,263.700 170.866 C 262.930 170.865,262.590 170.900,262.946 170.944 M315.552 170.941 C 315.801 170.989,316.161 170.987,316.352 170.937 C 316.544 170.887,316.340 170.848,315.900 170.850 C 315.460 170.853,315.304 170.894,315.552 170.941 M348.257 171.700 C 348.259 172.250,348.298 172.451,348.344 172.147 C 348.389 171.843,348.388 171.393,348.341 171.147 C 348.293 170.901,348.256 171.150,348.257 171.700 M186.552 171.141 C 186.801 171.189,187.161 171.187,187.352 171.137 C 187.544 171.087,187.340 171.048,186.900 171.050 C 186.460 171.053,186.304 171.094,186.552 171.141 M279.352 171.141 C 279.601 171.189,279.961 171.187,280.152 171.137 C 280.344 171.087,280.140 171.048,279.700 171.050 C 279.260 171.053,279.104 171.094,279.352 171.141 M250.954 171.345 C 251.313 171.389,251.853 171.389,252.154 171.343 C 252.454 171.297,252.160 171.261,251.500 171.262 C 250.840 171.263,250.594 171.300,250.954 171.345 M202.687 172.250 L 202.100 172.900 202.750 172.313 C 203.108 171.990,203.400 171.697,203.400 171.663 C 203.400 171.508,203.235 171.644,202.687 172.250 M208.200 171.663 C 208.200 171.697,208.493 171.990,208.850 172.313 L 209.500 172.900 208.913 172.250 C 208.365 171.644,208.200 171.508,208.200 171.663 M242.246 172.200 C 242.246 172.585,242.288 172.743,242.338 172.550 C 242.388 172.358,242.388 172.043,242.338 171.850 C 242.288 171.658,242.246 171.815,242.246 172.200 M342.250 172.300 C 342.253 172.740,342.294 172.896,342.341 172.648 C 342.389 172.399,342.387 172.039,342.337 171.848 C 342.287 171.656,342.248 171.860,342.250 172.300 M220.250 172.700 C 220.253 173.140,220.294 173.296,220.341 173.048 C 220.389 172.799,220.387 172.439,220.337 172.248 C 220.287 172.056,220.248 172.260,220.250 172.700 M275.887 172.650 L 275.300 173.300 275.950 172.713 C 276.556 172.165,276.692 172.000,276.537 172.000 C 276.503 172.000,276.210 172.293,275.887 172.650 M331.646 172.600 C 331.646 172.985,331.688 173.143,331.738 172.950 C 331.788 172.758,331.788 172.442,331.738 172.250 C 331.688 172.058,331.646 172.215,331.646 172.600 M252.446 173.200 C 252.446 173.585,252.488 173.743,252.538 173.550 C 252.588 173.358,252.588 173.043,252.538 172.850 C 252.488 172.658,252.446 172.815,252.446 173.200 M291.657 173.700 C 291.659 174.250,291.698 174.451,291.744 174.147 C 291.789 173.843,291.788 173.393,291.741 173.147 C 291.693 172.901,291.656 173.150,291.657 173.700 M226.446 173.600 C 226.446 173.985,226.488 174.143,226.538 173.950 C 226.588 173.758,226.588 173.442,226.538 173.250 C 226.488 173.058,226.446 173.215,226.446 173.600 M235.850 174.100 C 235.853 174.540,235.894 174.696,235.941 174.448 C 235.989 174.199,235.987 173.839,235.937 173.648 C 235.887 173.456,235.848 173.660,235.850 174.100 M326.846 174.600 C 326.846 174.985,326.888 175.143,326.938 174.950 C 326.988 174.758,326.988 174.442,326.938 174.250 C 326.888 174.058,326.846 174.215,326.846 174.600 M262.053 174.944 C 262.357 174.989,262.807 174.988,263.053 174.941 C 263.299 174.893,263.050 174.856,262.500 174.857 C 261.950 174.859,261.749 174.898,262.053 174.944 M331.446 175.400 C 331.446 175.785,331.488 175.942,331.538 175.750 C 331.588 175.558,331.588 175.243,331.538 175.050 C 331.488 174.858,331.446 175.015,331.446 175.400 M220.050 175.700 C 220.053 176.140,220.094 176.296,220.141 176.048 C 220.189 175.799,220.187 175.439,220.137 175.248 C 220.087 175.056,220.048 175.260,220.050 175.700 M346.487 175.650 L 345.900 176.300 346.550 175.713 C 347.156 175.165,347.292 175.000,347.137 175.000 C 347.103 175.000,346.810 175.293,346.487 175.650 M216.860 176.200 C 216.860 176.805,216.897 177.053,216.943 176.750 C 216.989 176.447,216.989 175.953,216.943 175.650 C 216.897 175.347,216.860 175.595,216.860 176.200 M252.246 175.800 C 252.246 176.185,252.288 176.343,252.338 176.150 C 252.388 175.958,252.388 175.643,252.338 175.450 C 252.288 175.258,252.246 175.415,252.246 175.800 M337.646 175.800 C 337.646 176.185,337.688 176.343,337.738 176.150 C 337.788 175.958,337.788 175.643,337.738 175.450 C 337.688 175.258,337.646 175.415,337.646 175.800 M320.454 176.600 C 320.454 177.095,320.493 177.298,320.541 177.050 C 320.589 176.803,320.589 176.398,320.541 176.150 C 320.493 175.903,320.454 176.105,320.454 176.600 M235.646 176.800 C 235.646 177.185,235.688 177.343,235.738 177.150 C 235.788 176.958,235.788 176.643,235.738 176.450 C 235.688 176.258,235.646 176.415,235.646 176.800 M200.664 178.000 C 200.664 178.715,200.700 179.008,200.745 178.650 C 200.789 178.293,200.789 177.708,200.745 177.350 C 200.700 176.993,200.664 177.285,200.664 178.000 M193.869 178.500 C 193.869 179.380,193.904 179.715,193.947 179.245 C 193.989 178.774,193.988 178.054,193.945 177.645 C 193.902 177.235,193.868 177.620,193.869 178.500 M274.050 177.700 C 274.053 178.140,274.094 178.296,274.141 178.048 C 274.189 177.799,274.187 177.439,274.137 177.248 C 274.087 177.056,274.048 177.260,274.050 177.700 M267.050 177.900 C 267.053 178.340,267.094 178.496,267.141 178.248 C 267.189 177.999,267.187 177.639,267.137 177.448 C 267.087 177.256,267.048 177.460,267.050 177.900 M331.250 177.900 C 331.253 178.340,331.294 178.496,331.341 178.248 C 331.389 177.999,331.387 177.639,331.337 177.448 C 331.287 177.256,331.248 177.460,331.250 177.900 M219.846 178.200 C 219.846 178.585,219.888 178.743,219.938 178.550 C 219.988 178.358,219.988 178.043,219.938 177.850 C 219.888 177.658,219.846 177.815,219.846 178.200 M291.246 178.600 C 291.246 178.985,291.288 179.143,291.338 178.950 C 291.388 178.758,291.388 178.442,291.338 178.250 C 291.288 178.058,291.246 178.215,291.246 178.600 M337.246 180.000 C 337.246 180.385,337.288 180.543,337.338 180.350 C 337.388 180.158,337.388 179.843,337.338 179.650 C 337.288 179.458,337.246 179.615,337.246 180.000 M258.075 180.093 C 258.013 180.255,258.009 180.502,258.065 180.643 C 258.122 180.785,258.176 180.702,258.184 180.461 C 258.198 180.084,258.334 180.011,259.150 179.947 L 260.100 179.872 259.144 179.836 C 258.463 179.810,258.155 179.884,258.075 180.093 M219.646 180.600 C 219.646 180.985,219.688 181.143,219.738 180.950 C 219.788 180.758,219.788 180.442,219.738 180.250 C 219.688 180.058,219.646 180.215,219.646 180.600 M331.050 180.700 C 331.053 181.140,331.094 181.296,331.141 181.048 C 331.189 180.799,331.187 180.439,331.137 180.248 C 331.087 180.056,331.048 180.260,331.050 180.700 M251.850 181.100 C 251.853 181.540,251.894 181.696,251.941 181.448 C 251.989 181.199,251.987 180.839,251.937 180.648 C 251.887 180.456,251.848 180.660,251.850 181.100 M291.046 181.200 C 291.046 181.585,291.088 181.743,291.138 181.550 C 291.188 181.358,291.188 181.043,291.138 180.850 C 291.088 180.658,291.046 180.815,291.046 181.200 M235.250 181.700 C 235.253 182.140,235.294 182.296,235.341 182.048 C 235.389 181.799,235.387 181.439,235.337 181.248 C 235.287 181.056,235.248 181.260,235.250 181.700 M225.646 182.400 C 225.646 182.785,225.688 182.942,225.738 182.750 C 225.788 182.558,225.788 182.243,225.738 182.050 C 225.688 181.858,225.646 182.015,225.646 182.400 M208.287 182.850 L 207.700 183.500 208.350 182.913 C 208.956 182.365,209.092 182.200,208.937 182.200 C 208.903 182.200,208.610 182.493,208.287 182.850 M191.199 185.059 L 191.298 187.500 191.356 185.217 C 191.388 183.961,191.343 182.863,191.257 182.776 C 191.171 182.689,191.145 183.717,191.199 185.059 M219.446 183.200 C 219.446 183.585,219.488 183.743,219.538 183.550 C 219.588 183.358,219.588 183.043,219.538 182.850 C 219.488 182.658,219.446 182.815,219.446 183.200 M284.071 184.700 C 284.070 185.690,284.104 186.120,284.146 185.656 C 284.188 185.192,284.189 184.382,284.147 183.856 C 284.106 183.330,284.072 183.710,284.071 184.700 M330.850 183.700 C 330.853 184.140,330.894 184.296,330.941 184.048 C 330.989 183.799,330.987 183.439,330.937 183.248 C 330.887 183.056,330.848 183.260,330.850 183.700 M251.650 183.900 C 251.653 184.340,251.694 184.496,251.741 184.248 C 251.789 183.999,251.787 183.639,251.737 183.448 C 251.687 183.256,251.648 183.460,251.650 183.900 M290.850 183.900 C 290.853 184.340,290.894 184.496,290.941 184.248 C 290.989 183.999,290.987 183.639,290.937 183.448 C 290.887 183.256,290.848 183.460,290.850 183.900 M186.650 183.938 C 186.843 183.988,187.158 183.988,187.350 183.938 C 187.543 183.888,187.385 183.846,187.000 183.846 C 186.615 183.846,186.458 183.888,186.650 183.938 M235.046 184.400 C 235.046 184.785,235.088 184.942,235.138 184.750 C 235.188 184.558,235.188 184.243,235.138 184.050 C 235.088 183.858,235.046 184.015,235.046 184.400 M279.450 183.938 C 279.643 183.988,279.957 183.988,280.150 183.938 C 280.343 183.888,280.185 183.846,279.800 183.846 C 279.415 183.846,279.257 183.888,279.450 183.938 M204.952 184.141 C 205.201 184.189,205.561 184.187,205.752 184.137 C 205.944 184.087,205.740 184.048,205.300 184.050 C 204.860 184.053,204.704 184.094,204.952 184.141 M314.952 184.141 C 315.201 184.189,315.561 184.187,315.752 184.137 C 315.944 184.087,315.740 184.048,315.300 184.050 C 314.860 184.053,314.704 184.094,314.952 184.141 M336.846 184.600 C 336.846 184.985,336.888 185.143,336.938 184.950 C 336.988 184.758,336.988 184.442,336.938 184.250 C 336.888 184.058,336.846 184.215,336.846 184.600 M213.091 185.450 L 212.300 186.300 213.150 185.509 C 213.940 184.774,214.092 184.600,213.941 184.600 C 213.908 184.600,213.525 184.983,213.091 185.450 M290.650 186.700 C 290.653 187.140,290.694 187.296,290.741 187.048 C 290.789 186.799,290.787 186.439,290.737 186.248 C 290.687 186.056,290.648 186.260,290.650 186.700 M228.154 188.945 C 228.513 188.989,229.053 188.989,229.354 188.943 C 229.654 188.897,229.360 188.861,228.700 188.862 C 228.040 188.863,227.794 188.900,228.154 188.945 M243.750 188.945 C 244.107 188.989,244.693 188.989,245.050 188.945 C 245.407 188.900,245.115 188.864,244.400 188.864 C 243.685 188.864,243.393 188.900,243.750 188.945 M254.450 188.938 C 254.643 188.988,254.957 188.988,255.150 188.938 C 255.343 188.888,255.185 188.846,254.800 188.846 C 254.415 188.846,254.257 188.888,254.450 188.938 M185.950 189.141 C 186.197 189.189,186.603 189.189,186.850 189.141 C 187.097 189.093,186.895 189.054,186.400 189.054 C 185.905 189.054,185.703 189.093,185.950 189.141 M221.150 189.148 C 221.838 189.187,222.963 189.187,223.650 189.148 C 224.338 189.109,223.775 189.077,222.400 189.077 C 221.025 189.077,220.463 189.109,221.150 189.148 M236.950 189.148 C 237.638 189.187,238.763 189.187,239.450 189.148 C 240.138 189.109,239.575 189.077,238.200 189.077 C 236.825 189.077,236.263 189.109,236.950 189.148 M257.954 189.145 C 258.313 189.189,258.853 189.189,259.154 189.143 C 259.454 189.097,259.160 189.061,258.500 189.062 C 257.840 189.063,257.594 189.100,257.954 189.145 M278.750 189.141 C 278.998 189.189,279.403 189.189,279.650 189.141 C 279.897 189.093,279.695 189.054,279.200 189.054 C 278.705 189.054,278.502 189.093,278.750 189.141 " stroke="none" fill="#783747" fill-rule="evenodd"></path><path id="path4" d="M77.500 136.136 C 77.720 136.197,77.974 136.348,78.065 136.473 C 78.174 136.623,78.203 136.598,78.150 136.400 C 78.105 136.235,77.851 136.083,77.584 136.063 C 77.202 136.034,77.185 136.049,77.500 136.136 M104.250 136.343 C 104.553 136.389,105.047 136.389,105.350 136.343 C 105.653 136.297,105.405 136.260,104.800 136.260 C 104.195 136.260,103.947 136.297,104.250 136.343 M108.050 136.538 C 108.243 136.588,108.558 136.588,108.750 136.538 C 108.942 136.488,108.785 136.446,108.400 136.446 C 108.015 136.446,107.858 136.488,108.050 136.538 M110.850 136.738 C 111.043 136.788,111.358 136.788,111.550 136.738 C 111.743 136.688,111.585 136.646,111.200 136.646 C 110.815 136.646,110.658 136.688,110.850 136.738 M99.789 141.350 L 99.100 142.100 99.850 141.411 C 100.548 140.769,100.692 140.600,100.539 140.600 C 100.506 140.600,100.168 140.938,99.789 141.350 M139.602 142.498 C 139.466 142.662,139.275 142.746,139.177 142.686 C 139.080 142.626,139.000 142.672,139.000 142.788 C 139.000 143.120,139.304 143.038,139.700 142.600 C 139.899 142.380,140.014 142.200,139.955 142.200 C 139.897 142.200,139.738 142.334,139.602 142.498 M148.150 143.145 C 148.508 143.189,149.093 143.189,149.450 143.145 C 149.808 143.100,149.515 143.064,148.800 143.064 C 148.085 143.064,147.792 143.100,148.150 143.145 M75.250 145.543 C 75.552 145.589,76.047 145.589,76.350 145.543 C 76.653 145.497,76.405 145.460,75.800 145.460 C 75.195 145.460,74.948 145.497,75.250 145.543 M148.752 145.541 C 149.001 145.589,149.361 145.587,149.552 145.537 C 149.744 145.487,149.540 145.448,149.100 145.450 C 148.660 145.453,148.504 145.494,148.752 145.541 M156.400 146.700 C 156.773 147.085,157.123 147.400,157.178 147.400 C 157.233 147.400,156.973 147.085,156.600 146.700 C 156.227 146.315,155.877 146.000,155.822 146.000 C 155.767 146.000,156.027 146.315,156.400 146.700 M84.400 147.063 C 84.400 147.097,84.692 147.390,85.050 147.713 L 85.700 148.300 85.113 147.650 C 84.565 147.044,84.400 146.908,84.400 147.063 M148.950 147.341 C 149.197 147.389,149.603 147.389,149.850 147.341 C 150.097 147.293,149.895 147.254,149.400 147.254 C 148.905 147.254,148.703 147.293,148.950 147.341 M68.000 148.700 C 67.514 149.195,67.162 149.600,67.217 149.600 C 67.272 149.600,67.714 149.195,68.200 148.700 C 68.686 148.205,69.038 147.800,68.983 147.800 C 68.928 147.800,68.486 148.205,68.000 148.700 M83.400 148.700 C 83.773 149.085,84.123 149.400,84.178 149.400 C 84.233 149.400,83.973 149.085,83.600 148.700 C 83.227 148.315,82.877 148.000,82.822 148.000 C 82.767 148.000,83.027 148.315,83.400 148.700 M140.891 149.250 L 140.100 150.100 140.950 149.309 C 141.740 148.574,141.892 148.400,141.741 148.400 C 141.708 148.400,141.325 148.782,140.891 149.250 M64.864 156.400 C 64.864 157.115,64.900 157.408,64.945 157.050 C 64.989 156.692,64.989 156.108,64.945 155.750 C 64.900 155.393,64.864 155.685,64.864 156.400 M88.646 155.800 C 88.646 156.185,88.688 156.343,88.738 156.150 C 88.788 155.958,88.788 155.643,88.738 155.450 C 88.688 155.258,88.646 155.415,88.646 155.800 M86.654 156.400 C 86.654 156.895,86.693 157.097,86.741 156.850 C 86.789 156.603,86.789 156.197,86.741 155.950 C 86.693 155.703,86.654 155.905,86.654 156.400 M62.654 156.800 C 62.654 157.295,62.693 157.498,62.741 157.250 C 62.789 157.003,62.789 156.597,62.741 156.350 C 62.693 156.103,62.654 156.305,62.654 156.800 M139.650 157.100 C 139.653 157.540,139.694 157.696,139.741 157.448 C 139.789 157.199,139.787 156.839,139.737 156.648 C 139.687 156.456,139.648 156.660,139.650 157.100 M155.046 157.000 C 155.046 157.385,155.088 157.543,155.138 157.350 C 155.188 157.158,155.188 156.843,155.138 156.650 C 155.088 156.458,155.046 156.615,155.046 157.000 M137.669 158.100 C 137.669 158.980,137.704 159.315,137.747 158.845 C 137.789 158.374,137.788 157.654,137.745 157.245 C 137.702 156.835,137.668 157.220,137.669 158.100 M88.646 157.600 C 88.646 157.985,88.688 158.143,88.738 157.950 C 88.788 157.758,88.788 157.442,88.738 157.250 C 88.688 157.058,88.646 157.215,88.646 157.600 M133.850 161.338 C 134.042 161.388,134.358 161.388,134.550 161.338 C 134.743 161.288,134.585 161.246,134.200 161.246 C 133.815 161.246,133.657 161.288,133.850 161.338 M93.857 161.548 C 94.494 161.588,95.484 161.587,96.057 161.547 C 96.631 161.507,96.110 161.474,94.900 161.475 C 93.690 161.475,93.221 161.508,93.857 161.548 M130.350 161.541 C 130.597 161.589,131.003 161.589,131.250 161.541 C 131.498 161.493,131.295 161.454,130.800 161.454 C 130.305 161.454,130.103 161.493,130.350 161.541 M104.750 161.749 C 105.547 161.786,106.853 161.786,107.650 161.749 C 108.447 161.711,107.795 161.679,106.200 161.679 C 104.605 161.679,103.953 161.711,104.750 161.749 M124.256 161.747 C 124.782 161.789,125.592 161.788,126.056 161.746 C 126.520 161.704,126.090 161.670,125.100 161.671 C 124.110 161.672,123.730 161.706,124.256 161.747 M67.992 164.050 C 68.820 164.933,69.000 165.092,69.000 164.942 C 69.000 164.910,68.573 164.482,68.050 163.992 L 67.100 163.100 67.992 164.050 M83.389 164.150 L 82.700 164.900 83.450 164.211 C 84.148 163.569,84.292 163.400,84.139 163.400 C 84.106 163.400,83.768 163.738,83.389 164.150 M75.250 167.343 C 75.552 167.389,76.047 167.389,76.350 167.343 C 76.653 167.297,76.405 167.260,75.800 167.260 C 75.195 167.260,74.948 167.297,75.250 167.343 " stroke="none" fill="#8a8991" fill-rule="evenodd"></path></g></svg>